# xmcd CD database file
#
# Track frame offsets:
#	150
#	15654
#	32216
#	47247
#	66173
#	81929
#	95663
#	108641
#	123800
#	139842
#	156216
#	174049
#	188910
#	202049
#	218969
#	233154
#	248973
#	262290
#	277496
#	291115
#	305692
#
# Disc length: 4327 seconds
#
# Revision: 2
# Processed by: cddbd v1.5.2PL0 Copyright (c) Steve Scherf et al.
# Submitted via: CDex 1.70beta2
#
DISCID=4810e515
DTITLE=Various Artist - Ballermann Hits Party 2009 CD1
DYEAR=2008
DGENRE=Pop
TTITLE0=Scooter - Jump That Rock (Whatever You Want)
TTITLE1=Mickie Krause - Jan Pillemann Otze
TTITLE2=Donikl - So A Schöner Tag (Fliegerlied)
TTITLE3=Christian And Die Sauberen Jungs - Das Jungfrauhenchor (Party Remix)
TTITLE4=Dj Ötzi Feat. Chriss Tuxi - Ich Will Leb'n
TTITLE5=Peter Wackel - Manchmal Möchte Ich Schon Mit Dir...
TTITLE6=Tim Toupet - Aber Dich Gibt's Nur Einmal Für Mich
TTITLE7=Markus Becker - Hörst Du Die Regenwürmer Husten
TTITLE8=Jürgen - Heut Ist Mein Tag (...das Ist Mir Latte)
TTITLE9=Schnitte and Die Schlagermafia - Na Na Hey Hey, Kiss Him Good Bye
TTITLE10=Sound Convoy - Hey, Wir Woll'n Die Eisbären Seh'n
TTITLE11=Kleiner Hai Feat. Alemuel and Mickie Krause - Kleiner Hai (Dim Dim)
TTITLE12=Arash Feat. Shaggy - Donya
TTITLE13=Hot Banditoz - Hands Up
TTITLE14=David Tavaré Feat. 2 Eivissa - Hot Summer Night
TTITLE15=Marquess - La Vida Es Limonada
TTITLE16=Monrose - Strike The Match
TTITLE17=High Heels Feat. Zounina - Forget About You (Kiss My Ass)
TTITLE18=Basshunter - All I Ever Wanted
TTITLE19=Guru Josh Project - Infinity 2008
TTITLE20=Peter Fox - Alles Neu
EXTD=YEAR: 2008
EXTT0=
EXTT1=
EXTT2=
EXTT3=
EXTT4=
EXTT5=
EXTT6=
EXTT7=
EXTT8=
EXTT9=
EXTT10=
EXTT11=
EXTT12=
EXTT13=
EXTT14=
EXTT15=
EXTT16=
EXTT17=
EXTT18=
EXTT19=
EXTT20=
PLAYORDER=
